# xmcd
# 
# Track frame offsets:
#     150
#     15227
#     27735
#     44537
#     56892
#     71652
#     86557
#     100532
#     116032
#     125127
# 
# Disc length: 1833
# 
# Revision: 5
# Processed by: cddbd v1.5.2PL0 Copyright (c) Steve Scherf et al.
# Submitted via: fre:ac v1.0.17
# 
DISCID=8a07270a
DTITLE=Joe Diffie - A Thousand Winding Roads
DYEAR=1990
DGENRE=Country
TTITLE0=Home
TTITLE1=If The Devil Danced (In Empty Pockets)
TTITLE2=If You Want Me To
TTITLE3=New Way (To Light Up An Old Flame)
TTITLE4=There Goes The Neighborhood
TTITLE5=Almost Home
TTITLE6=I Ain't Leavin' 'Til She's Gone
TTITLE7=Coolest Fool In Town
TTITLE8=Liquid Heartache
TTITLE9=Stranger In Your Eyes
EXTD=
EXTT0=
EXTT1=
EXTT2=
EXTT3=
EXTT4=
EXTT5=
EXTT6=
EXTT7=
EXTT8=
EXTT9=
PLAYORDER=
